<?xml version="1.0" standalone="no"?>
<!DOCTYPE svg PUBLIC "-//W3C//DTD SVG 20010904//EN"
 "http://www.w3.org/TR/2001/REC-SVG-20010904/DTD/svg10.dtd">
<svg version="1.0" xmlns="http://www.w3.org/2000/svg"
 width="348.000000pt" height="145.000000pt" viewBox="0 0 348.000000 145.000000"
 preserveAspectRatio="xMidYMid meet">

<g transform="translate(0.000000,145.000000) scale(0.100000,-0.100000)"
fill="#000000" stroke="none">
<path d="M890 938 c28 -20 47 -55 124 -235 50 -117 93 -213 96 -213 3 0 43 93
90 208 59 145 93 215 113 235 l29 27 -68 0 -69 0 28 -23 29 -22 -63 -158 c-35
-86 -66 -157 -70 -157 -7 0 -126 268 -135 305 -5 19 0 27 23 39 27 15 24 15
-66 16 l-94 0 33 -22z"/>
<path d="M1400 947 l35 -12 3 -199 c2 -133 -1 -203 -9 -212 -6 -7 -23 -15 -37
-17 -15 -2 54 -5 154 -6 l180 -1 17 52 c19 60 16 74 -7 29 -25 -47 -64 -62
-154 -59 l-77 3 -3 103 -3 102 68 0 c77 0 91 -6 109 -47 11 -26 12 -21 13 50
1 50 -3 76 -9 72 -5 -3 -10 -13 -10 -20 0 -23 -35 -35 -104 -35 l-66 0 0 95 0
95 81 0 c92 0 114 -8 133 -53 l14 -32 1 37 c2 70 8 68 -188 67 -150 0 -171 -2
-141 -12z"/>
<path d="M1810 953 c48 -18 50 -26 50 -223 0 -199 -3 -215 -50 -223 -14 -2 13
-4 60 -4 48 -1 72 2 55 6 -39 8 -43 25 -44 216 0 131 2 157 12 143 7 -9 49
-95 93 -192 43 -97 82 -176 85 -176 3 0 22 37 42 83 19 45 60 132 89 192 l53
110 3 -161 c3 -181 -3 -211 -45 -217 -15 -2 17 -4 72 -4 55 -1 91 2 80 4 -44
11 -45 17 -45 223 0 206 1 212 45 223 11 2 -8 5 -43 6 l-63 1 -57 -122 c-32
-68 -69 -149 -82 -180 -14 -32 -27 -58 -30 -58 -3 0 -25 44 -50 98 -24 53 -62
134 -83 180 l-38 82 -62 -1 c-34 0 -55 -3 -47 -6z"/>
<path d="M2435 953 c53 -13 55 -22 55 -223 0 -199 -3 -215 -50 -223 -14 -2 20
-4 75 -4 55 -1 91 2 80 4 -44 11 -45 17 -45 223 0 206 1 212 45 223 11 2 -25
5 -80 5 -55 0 -91 -3 -80 -5z"/>
</g>
</svg>
