<?xml version="1.0" standalone="no"?>
<!DOCTYPE svg PUBLIC "-//W3C//DTD SVG 20010904//EN"
 "http://www.w3.org/TR/2001/REC-SVG-20010904/DTD/svg10.dtd">
<svg version="1.0" xmlns="http://www.w3.org/2000/svg"
 width="165.000000pt" height="90.000000pt" viewBox="0 0 165.000000 90.000000"
 preserveAspectRatio="xMidYMid meet">

<g transform="translate(0.000000,90.000000) scale(0.100000,-0.100000)"
fill="#000000" stroke="none">
<path d="M730 732 c0 -10 -13 -58 -30 -107 -16 -49 -28 -90 -26 -92 2 -2 16
30 32 72 27 70 48 96 65 78 4 -4 0 -54 -8 -110 -8 -57 -13 -110 -9 -118 3 -10
19 -15 45 -15 50 0 71 8 71 28 0 12 -3 13 -12 4 -7 -7 -29 -12 -50 -12 -36 0
-38 2 -38 33 0 64 9 77 51 77 22 0 39 5 39 10 0 6 -18 10 -40 10 -44 0 -42 -7
-25 76 5 24 8 25 50 18 30 -4 45 -3 45 4 0 7 -28 12 -67 14 -62 3 -68 5 -71
26 -4 26 -22 30 -22 4z"/>
<path d="M1101 643 c-17 -43 -36 -91 -42 -108 l-13 -30 -7 50 c-4 28 -8 74 -8
103 -1 28 -5 52 -11 52 -5 0 -10 -22 -10 -49 0 -62 -34 -172 -60 -196 -11 -10
-26 -15 -36 -11 -13 5 -16 15 -11 54 l6 47 -16 -35 c-13 -30 -13 -39 -2 -59 8
-14 19 -26 25 -28 22 -7 55 34 78 97 l24 65 7 -78 c4 -43 10 -76 12 -73 3 3
18 42 34 87 16 45 30 84 32 85 2 2 2 -31 -1 -74 -4 -64 -1 -81 13 -95 9 -9 21
-17 26 -17 16 0 49 39 49 58 -1 12 -5 9 -16 -10 -51 -95 -75 79 -30 220 4 12
3 22 -2 22 -5 0 -24 -35 -41 -77z"/>
<path d="M588 703 c-28 -7 -28 -29 0 -28 23 0 27 -5 34 -40 4 -22 7 -75 7
-117 1 -76 13 -102 25 -54 3 13 8 32 12 43 3 10 -1 7 -10 -7 -14 -24 -15 -20
-16 71 0 78 -3 101 -17 116 -10 11 -25 18 -35 16z"/>
<path d="M1223 687 c17 -11 17 -19 2 -117 -8 -58 -17 -111 -20 -117 -5 -14 11
-18 19 -5 3 5 10 51 16 103 7 52 16 106 20 122 8 26 7 27 -22 27 -28 0 -30 -1
-15 -13z"/>
</g>
</svg>
